<svg xmlns="http://www.w3.org/2000/svg" viewBox="0 0 49.59 45.72"><defs><style>.cls-1{fill:#fff;}</style></defs><g id="Layer_2" data-name="Layer 2"><path class="cls-1" d="M14.36,44.75c0-2.81,0-5.63,0-8.44A7,7,0,0,1,17,30.72c1.25-1,2.54-2,3.8-3s2.6-2.05,3-3.84a5.2,5.2,0,0,0-2.21-5.18c-3-2.39-7.11-4.67-7.2-9-.07-2.9,0-5.81,0-8.71a1,1,0,0,0-1.95,0c0,2.81,0,5.63,0,8.45a8.9,8.9,0,0,0,2.3,6.11,31.58,31.58,0,0,0,3.62,3c1.05.84,2.76,1.81,3.33,3.09,1,2.24-.9,3.59-2.4,4.79-1.21,1-2.43,1.92-3.63,2.9A8.77,8.77,0,0,0,12.41,36c-.07,2.9,0,5.81,0,8.71a1,1,0,0,0,1.95,0Z"></path><path class="cls-1" d="M37.19,44.75c0-2.81,0-5.63,0-8.44a9,9,0,0,0-2.3-6.12,32.56,32.56,0,0,0-3.62-3c-1.06-.85-2.76-1.81-3.34-3.1-1-2.24.9-3.59,2.4-4.79,1.21-1,2.44-1.92,3.63-2.9a8.79,8.79,0,0,0,3.23-6.7c.06-2.9,0-5.81,0-8.71a1,1,0,0,0-1.95,0c0,2.81,0,5.63,0,8.45A7.06,7.06,0,0,1,32.59,15c-1.25,1-2.54,2-3.81,3s-2.6,2.05-3,3.84A5.22,5.22,0,0,0,28,27.08c3,2.4,7.12,4.67,7.21,9,.06,2.9,0,5.81,0,8.71a1,1,0,0,0,1.95,0Z"></path><path class="cls-1" d="M15.28,21.9H8.76a16.82,16.82,0,0,1-2.46,0A2.93,2.93,0,0,1,3.89,18.8c-.07-4.52,0-9,0-13.57A3.07,3.07,0,0,1,7.22,2H40A1,1,0,0,0,40,0H7.07A4.92,4.92,0,0,0,1.94,4.82c-.17,4.59,0,9.22,0,13.81,0,3.28,2.28,5.22,5.46,5.22h7.88a1,1,0,0,0,0-2Z"></path><path class="cls-1" d="M9.84,18.8l4.75,4.76V22.18L9.84,26.94a1,1,0,0,0,1.38,1.38L16,23.56a1,1,0,0,0,0-1.38l-4.75-4.76A1,1,0,0,0,9.84,18.8Z"></path><path class="cls-1" d="M34.31,23.85h6.52a17,17,0,0,1,2.47,0,2.92,2.92,0,0,1,2.4,3.07c.08,4.52,0,9.05,0,13.57a3.06,3.06,0,0,1-3.33,3.27H9.57a1,1,0,0,0,0,1.95H37.86c1.55,0,3.11,0,4.67,0a4.91,4.91,0,0,0,5.12-4.81c.17-4.58,0-9.22,0-13.81,0-3.27-2.27-5.21-5.46-5.21H34.31a1,1,0,0,0,0,2Z"></path><path class="cls-1" d="M39.76,26.94,35,22.18v1.38l4.76-4.76a1,1,0,0,0-1.38-1.38l-4.76,4.76a1,1,0,0,0,0,1.38l4.76,4.76a1,1,0,0,0,1.38-1.38Z"></path><path class="cls-1" d="M25.77,17.16v-1.9a1,1,0,0,0-.28-.69,1,1,0,0,0-.69-.29,1,1,0,0,0-.69.29,1,1,0,0,0-.29.69v1.9a1,1,0,0,0,1,1,1,1,0,0,0,.69-.29,1,1,0,0,0,.28-.69Z"></path><path class="cls-1" d="M25.77,11.45V9.55a1,1,0,0,0-.28-.69,1,1,0,0,0-.69-.28,1,1,0,0,0-.69.28,1,1,0,0,0-.29.69v1.9a1,1,0,0,0,1,1,1,1,0,0,0,.69-.29,1,1,0,0,0,.28-.69Z"></path><path class="cls-1" d="M20.06,11.45V9.55a1,1,0,0,0-1.66-.69,1,1,0,0,0-.29.69v1.9a1,1,0,0,0,.29.69,1,1,0,0,0,.69.29,1,1,0,0,0,.69-.29,1,1,0,0,0,.28-.69Z"></path><path class="cls-1" d="M31.48,11.45V9.55a1,1,0,0,0-.28-.69,1,1,0,0,0-.69-.28,1,1,0,0,0-.69.28,1,1,0,0,0-.29.69v1.9a1,1,0,0,0,1,1,1,1,0,0,0,.69-.29,1,1,0,0,0,.28-.69Z"></path><path class="cls-1" d="M28.63,14.31v-1.9a1,1,0,0,0-.29-.69,1,1,0,0,0-.69-.29,1,1,0,0,0-.69.29,1,1,0,0,0-.28.69v1.9A1,1,0,0,0,27,15a1,1,0,0,0,.69.28,1,1,0,0,0,.69-.28,1,1,0,0,0,.29-.69Z"></path><path class="cls-1" d="M22.92,14.31v-1.9a1,1,0,0,0-1-1,1,1,0,0,0-.69.29,1,1,0,0,0-.28.69v1.9a1,1,0,0,0,.28.69,1,1,0,0,0,.69.28,1,1,0,0,0,.69-.28,1,1,0,0,0,.29-.69Z"></path><path class="cls-1" d="M23.82,34.29v1.9a1,1,0,0,0,.29.69,1,1,0,0,0,.69.29,1,1,0,0,0,1-1v-1.9a1,1,0,0,0-.28-.69,1,1,0,0,0-.69-.29,1,1,0,0,0-1,1Z"></path><path class="cls-1" d="M23.82,29.48v1.9a1,1,0,0,0,1,1,1,1,0,0,0,.69-.29,1,1,0,0,0,.28-.69v-1.9a1,1,0,0,0-.28-.69,1,1,0,0,0-.69-.28,1,1,0,0,0-.69.28,1,1,0,0,0-.29.69Z"></path><path class="cls-1" d="M23.82,40v1.9a1,1,0,0,0,.29.69.94.94,0,0,0,.69.28,1,1,0,0,0,.69-.28,1,1,0,0,0,.28-.69V40a1,1,0,0,0-.28-.69A1,1,0,0,0,24.8,39a1,1,0,0,0-1,1Z"></path><path class="cls-1" d="M29.53,40v1.9a1,1,0,0,0,.29.69.94.94,0,0,0,.69.28,1,1,0,0,0,.69-.28,1,1,0,0,0,.28-.69V40a1,1,0,0,0-.28-.69,1,1,0,0,0-.69-.29,1,1,0,0,0-.69.29,1,1,0,0,0-.29.69Z"></path><path class="cls-1" d="M18.11,40v1.9a1,1,0,0,0,.29.69,1,1,0,0,0,.69.28,1,1,0,0,0,.69-.28,1,1,0,0,0,.28-.69V40a1,1,0,0,0-.28-.69,1,1,0,0,0-1.38,0,1,1,0,0,0-.29.69Z"></path><path class="cls-1" d="M21,37.14V39a1,1,0,0,0,.28.69,1,1,0,0,0,.69.29.93.93,0,0,0,.69-.29,1,1,0,0,0,.29-.69v-1.9a1,1,0,0,0-.29-.69,1,1,0,0,0-.69-.28,1,1,0,0,0-.69.28,1,1,0,0,0-.28.69Z"></path><path class="cls-1" d="M26.68,37.14V39a1,1,0,0,0,.28.69,1,1,0,0,0,.69.29.94.94,0,0,0,.69-.29,1,1,0,0,0,.29-.69v-1.9a1,1,0,0,0-.29-.69,1,1,0,0,0-1.38,0,1,1,0,0,0-.28.69Z"></path></g></svg>