<svg xmlns="http://www.w3.org/2000/svg" viewBox="0 0 49.59 45.72"><defs><style>.cls-1{fill:none;stroke:#fff;stroke-miterlimit:10;stroke-width:2px;}</style></defs><g id="Layer_2" data-name="Layer 2"><path class="cls-1" d="M36.63,12.13h2a2,2,0,0,1,2,2v3.95a2,2,0,0,1-2,2h-2"></path><path class="cls-1" d="M12.9,12.13h-2a2,2,0,0,0-2,2v3.95a2,2,0,0,0,2,2h2"></path><path class="cls-1" d="M16.86,40.8v2a2,2,0,0,1-2,2h-2a2,2,0,0,1-2-2v-2"></path><path class="cls-1" d="M38.61,40.8v2a2,2,0,0,1-2,2h-2a2,2,0,0,1-2-2v-2"></path><path class="cls-1" d="M39.15,27.68a2,2,0,0,1,1.43,1.9v9.24a2,2,0,0,1-2,2H10.93a2,2,0,0,1-2-2V29.58a2,2,0,0,1,1.44-1.9L12.9,27V11.51a3,3,0,0,1,2.72-3c3-.24,6.07-.37,9.15-.37s6.12.13,9.14.37a3,3,0,0,1,2.72,3V27Z"></path><rect class="cls-1" x="12.9" y="12.13" width="23.72" height="7.91"></rect><line class="cls-1" x1="8.95" y1="36.85" x2="40.58" y2="36.85"></line><line class="cls-1" x1="11.92" y1="32.89" x2="15.87" y2="32.89"></line><line class="cls-1" x1="33.66" y1="32.89" x2="38.61" y2="32.89"></line><rect class="cls-1" x="18.84" y="25.97" width="11.86" height="6.92"></rect><path class="cls-1" d="M12.15,27.18A14,14,0,0,1,6.23,16.1C6.23,7.76,14.53,1,24.77,1S43.3,7.76,43.3,16.1a14,14,0,0,1-5.92,11.08"></path></g></svg>