<svg xmlns="http://www.w3.org/2000/svg" viewBox="0 0 49.6 45.72"><defs><style>.cls-1{fill:#fff;}</style></defs><g id="Layer_2" data-name="Layer 2"><path class="cls-1" d="M48.92,31.26,44.46,18.43A3.6,3.6,0,0,0,40,16.05a3.28,3.28,0,0,0-1.67,1.32,3.4,3.4,0,0,0-3.42-.77,3.26,3.26,0,0,0-1.66,1.32,3.43,3.43,0,0,0-3.44-.76,3,3,0,0,0-1.33.87l-2.18-6.27A3.59,3.59,0,0,0,21.8,9.38a3.6,3.6,0,0,0-2,4.65l6,17.12L23.23,29a3.58,3.58,0,0,0-5,.19,3.58,3.58,0,0,0,.63,5l9.64,8.18.33.28c1.63,1.4,5.46,4.69,13,2C51.52,41.36,49.73,33.62,48.92,31.26ZM41.19,42.92c-6.54,2.28-9.54-.31-11.16-1.69l-.34-.3-9.63-8.17a1.69,1.69,0,0,1-.4-2.31,1.7,1.7,0,0,1,2.34,0l4.94,4.2A1.15,1.15,0,0,0,28.1,35a1,1,0,0,0,.58-1.22L21.57,13.4a1.72,1.72,0,0,1,.86-2.21,1.71,1.71,0,0,1,2,1.2l3.28,9.42.55,1.59a1,1,0,0,0,1.81-.63l-.55-1.59A1.71,1.71,0,0,1,30.41,19a1.71,1.71,0,0,1,2,1.2l.94,2.68a1,1,0,0,0,1.81-.63l-.56-1.59a1.56,1.56,0,1,1,2.9-1l.93,2.68a1,1,0,0,0,1.22.59,1,1,0,0,0,.59-1.22l-.55-1.59a1.56,1.56,0,1,1,2.9-1l4.44,12.78C47.91,34.27,49,40.19,41.19,42.92Z"></path><path class="cls-1" d="M18.56,17.24a1,1,0,0,0,.88-.57A1,1,0,0,0,19,15.41a7.05,7.05,0,1,1,8.87-2.72,1,1,0,0,0,1.63,1,9,9,0,1,0-11.29,3.46A1.09,1.09,0,0,0,18.56,17.24Z"></path><path class="cls-1" d="M10.64,8H3.25l1.1-1.1A1,1,0,1,0,3,5.58L.28,8.3a1,1,0,0,0,0,1.35L3,12.36a1,1,0,0,0,1.36,0,1,1,0,0,0,0-1.35l-1-1h7.34a1,1,0,1,0,0-1.92Z"></path><path class="cls-1" d="M33.26,10h7.18l-1,1a1,1,0,0,0,.68,1.63.92.92,0,0,0,.67-.28l2.72-2.71a1,1,0,0,0,0-1.35L40.74,5.58a1,1,0,1,0-1.35,1.36L40.49,8H33.26a1,1,0,0,0,0,1.92Z"></path></g></svg>