<svg xmlns="http://www.w3.org/2000/svg" viewBox="0 0 842.69 331.98"><defs><style>      .cls-1 {        fill: #2c409a;      }      .cls-2 {        isolation: isolate;      }      .cls-3 {        fill: #ed2224;      }      .cls-3, .cls-4 {        mix-blend-mode: multiply;      }    </style></defs><g class="cls-2"><g id="Layer_2" data-name="Layer 2"><g id="Layer_1-2" data-name="Layer 1"><g><g class="cls-4"><polygon class="cls-3" points="172.12 86.07 172.12 288.94 189.95 271.1 200.82 260.23 200.82 97.93 210.23 88.52 229.5 69.25 229.5 229.52 230.54 230.56 250.82 210.27 258.19 202.87 258.19 0 172.12 86.07"></polygon><polygon class="cls-3" points="149.38 27.68 129.1 47.96 114.75 62.31 114.75 317.63 129.1 331.98 143.43 317.63 143.43 74.2 172.11 45.51 172.11 4.95 169.66 7.4 149.38 27.68"></polygon><polygon class="cls-3" points="47.95 47.95 28.68 28.68 0 0 0 202.87 7.39 210.27 28.68 231.57 28.68 69.25 57.37 97.93 57.37 260.23 68.24 271.1 86.05 288.91 86.05 86.05 57.37 57.37 47.95 47.95"></polygon></g><g><path class="cls-1" d="M393.94,24.45V93.38h-13.1l-34.37-41.85v41.85h-15.76V24.45h13.2l34.27,41.85V24.45h15.76Z"></path><path class="cls-1" d="M448.5,45.47c4.4,3.91,6.6,9.8,6.6,17.68v30.23h-14.38v-6.6c-2.89,4.92-8.27,7.38-16.15,7.38-4.07,0-7.6-.69-10.59-2.06-2.99-1.38-5.27-3.29-6.85-5.72-1.57-2.43-2.36-5.19-2.36-8.27,0-4.92,1.86-8.8,5.57-11.62,3.71-2.82,9.44-4.23,17.18-4.23h12.21c0-3.35-1.02-5.93-3.05-7.73-2.04-1.8-5.09-2.71-9.16-2.71-2.82,0-5.6,.45-8.32,1.33-2.73,.89-5.04,2.09-6.94,3.6l-5.51-10.73c2.89-2.03,6.35-3.61,10.39-4.73,4.04-1.12,8.19-1.67,12.46-1.67,8.2,0,14.51,1.95,18.9,5.86Zm-13.1,36.54c2.04-1.22,3.48-3.01,4.33-5.37v-5.41h-10.54c-6.3,0-9.45,2.07-9.45,6.21,0,1.97,.77,3.53,2.31,4.67,1.54,1.15,3.66,1.72,6.35,1.72s4.96-.61,6.99-1.82Z"></path><path class="cls-1" d="M552.1,40.4l-19.2,52.98h-14.77l-11.92-32.89-12.31,32.89h-14.77l-19.1-52.98h14.48l12.51,35.85,13-35.85h13l12.61,35.85,12.9-35.85h13.59Z"></path><path class="cls-1" d="M596.8,45.47c4.4,3.91,6.6,9.8,6.6,17.68v30.23h-14.38v-6.6c-2.89,4.92-8.27,7.38-16.15,7.38-4.07,0-7.6-.69-10.59-2.06-2.99-1.38-5.27-3.29-6.85-5.72-1.57-2.43-2.36-5.19-2.36-8.27,0-4.92,1.86-8.8,5.57-11.62,3.71-2.82,9.44-4.23,17.18-4.23h12.21c0-3.35-1.02-5.93-3.05-7.73-2.04-1.8-5.09-2.71-9.16-2.71-2.82,0-5.6,.45-8.32,1.33-2.73,.89-5.04,2.09-6.94,3.6l-5.51-10.73c2.89-2.03,6.35-3.61,10.39-4.73,4.04-1.12,8.19-1.67,12.46-1.67,8.2,0,14.51,1.95,18.9,5.86Zm-13.1,36.54c2.04-1.22,3.48-3.01,4.33-5.37v-5.41h-10.54c-6.3,0-9.45,2.07-9.45,6.21,0,1.97,.77,3.53,2.31,4.67,1.54,1.15,3.66,1.72,6.35,1.72s4.96-.61,6.99-1.82Z"></path><path class="cls-1" d="M621.22,92.54c-4.2-1.09-7.55-2.44-10.04-4.09l5.12-11.03c2.36,1.51,5.22,2.74,8.57,3.69,3.35,.95,6.63,1.43,9.85,1.43,6.5,0,9.75-1.61,9.75-4.83,0-1.51-.89-2.59-2.66-3.25-1.77-.65-4.5-1.21-8.17-1.67-4.33-.65-7.91-1.41-10.73-2.27-2.82-.85-5.27-2.36-7.34-4.53-2.07-2.16-3.1-5.25-3.1-9.26,0-3.35,.97-6.32,2.91-8.91,1.93-2.6,4.76-4.62,8.47-6.06,3.71-1.45,8.09-2.16,13.15-2.16,3.74,0,7.47,.41,11.17,1.23,3.71,.82,6.78,1.95,9.21,3.4l-5.12,10.93c-4.66-2.62-9.75-3.93-15.26-3.93-3.28,0-5.75,.45-7.39,1.38-1.64,.92-2.46,2.1-2.46,3.54,0,1.64,.89,2.79,2.66,3.44,1.77,.66,4.6,1.28,8.47,1.87,4.33,.73,7.88,1.5,10.64,2.32,2.76,.82,5.15,2.31,7.19,4.48,2.04,2.16,3.05,5.18,3.05,9.05,0,3.29-.98,6.21-2.95,8.77-1.97,2.56-4.84,4.55-8.62,5.96-3.78,1.41-8.25,2.11-13.44,2.11-4.4,0-8.7-.54-12.9-1.62Z"></path><path class="cls-1" d="M719.21,71.22h-40.08c.72,3.29,2.43,5.88,5.12,7.78,2.69,1.91,6.04,2.86,10.04,2.86,2.76,0,5.2-.41,7.34-1.23,2.13-.82,4.12-2.12,5.96-3.89l8.17,8.86c-4.99,5.71-12.28,8.56-21.86,8.56-5.98,0-11.26-1.16-15.86-3.49-4.6-2.33-8.14-5.56-10.64-9.7-2.49-4.14-3.74-8.83-3.74-14.08s1.23-9.87,3.69-14.04c2.46-4.17,5.84-7.42,10.14-9.75,4.3-2.33,9.11-3.49,14.43-3.49s9.88,1.12,14.08,3.35c4.2,2.24,7.5,5.44,9.9,9.6,2.4,4.17,3.6,9.01,3.6,14.52,0,.2-.1,1.58-.3,4.14Zm-35.94-17.04c-2.37,1.97-3.81,4.67-4.33,8.08h26.09c-.52-3.35-1.97-6.02-4.33-8.03-2.36-2-5.25-3-8.67-3s-6.4,.98-8.76,2.95Z"></path><path class="cls-1" d="M776.86,45.52c4.04,3.94,6.06,9.79,6.06,17.53v30.33h-15.36v-27.97c0-4.2-.92-7.34-2.76-9.4-1.84-2.07-4.5-3.1-7.98-3.1-3.87,0-6.96,1.2-9.26,3.6-2.3,2.39-3.45,5.96-3.45,10.68v26.19h-15.36V40.4h14.67v6.21c2.04-2.23,4.56-3.95,7.58-5.17,3.02-1.21,6.34-1.82,9.95-1.82,6.57,0,11.87,1.97,15.9,5.91Z"></path><path class="cls-1" d="M836.1,45.47c4.4,3.91,6.6,9.8,6.6,17.68v30.23h-14.38v-6.6c-2.89,4.92-8.27,7.38-16.15,7.38-4.07,0-7.6-.69-10.59-2.06-2.99-1.38-5.27-3.29-6.85-5.72-1.57-2.43-2.36-5.19-2.36-8.27,0-4.92,1.86-8.8,5.57-11.62,3.71-2.82,9.44-4.23,17.18-4.23h12.21c0-3.35-1.02-5.93-3.05-7.73-2.04-1.8-5.09-2.71-9.16-2.71-2.82,0-5.6,.45-8.32,1.33-2.73,.89-5.04,2.09-6.94,3.6l-5.51-10.73c2.89-2.03,6.35-3.61,10.39-4.73,4.04-1.12,8.19-1.67,12.46-1.67,8.2,0,14.51,1.95,18.9,5.86Zm-13.1,36.54c2.04-1.22,3.48-3.01,4.33-5.37v-5.41h-10.54c-6.3,0-9.45,2.07-9.45,6.21,0,1.97,.77,3.53,2.31,4.67,1.54,1.15,3.66,1.72,6.35,1.72s4.96-.61,6.99-1.82Z"></path><path class="cls-1" d="M374.64,200.06l-13.3-19.2h-14.67v19.2h-15.95v-68.93h29.84c6.11,0,11.41,1.02,15.9,3.05,4.5,2.04,7.96,4.92,10.39,8.67,2.43,3.74,3.65,8.17,3.65,13.3s-1.23,9.54-3.69,13.24c-2.46,3.71-5.96,6.55-10.49,8.52l15.46,22.16h-17.14Zm-4.04-52.84c-2.49-2.06-6.14-3.1-10.93-3.1h-13v24.02h13c4.79,0,8.43-1.05,10.93-3.15,2.49-2.1,3.74-5.06,3.74-8.86s-1.25-6.85-3.74-8.91Z"></path><path class="cls-1" d="M440.81,152.15c4.4,3.91,6.6,9.8,6.6,17.68v30.23h-14.38v-6.6c-2.89,4.92-8.27,7.38-16.15,7.38-4.07,0-7.6-.69-10.59-2.06-2.99-1.38-5.27-3.29-6.85-5.72-1.57-2.43-2.36-5.19-2.36-8.27,0-4.92,1.86-8.8,5.57-11.62,3.71-2.82,9.44-4.23,17.18-4.23h12.21c0-3.35-1.02-5.93-3.05-7.73-2.04-1.8-5.09-2.71-9.16-2.71-2.82,0-5.6,.45-8.32,1.33-2.73,.89-5.04,2.09-6.94,3.6l-5.51-10.73c2.89-2.03,6.35-3.61,10.39-4.73s8.19-1.67,12.46-1.67c8.2,0,14.51,1.95,18.9,5.86Zm-13.1,36.54c2.04-1.22,3.48-3.01,4.33-5.37v-5.41h-10.54c-6.3,0-9.45,2.07-9.45,6.21,0,1.97,.77,3.53,2.31,4.67,1.54,1.15,3.66,1.72,6.35,1.72s4.96-.61,6.99-1.82Z"></path><path class="cls-1" d="M508.42,152.2c4.04,3.94,6.06,9.79,6.06,17.53v30.33h-15.36v-27.97c0-4.2-.92-7.34-2.76-9.4-1.84-2.07-4.5-3.1-7.98-3.1-3.87,0-6.96,1.2-9.26,3.6-2.3,2.39-3.45,5.96-3.45,10.68v26.19h-15.36V126.99h15.36v25.61c2.04-2.03,4.5-3.6,7.38-4.68,2.89-1.08,6.04-1.62,9.45-1.62,6.57,0,11.87,1.97,15.9,5.91Z"></path><path class="cls-1" d="M567.65,152.15c4.4,3.91,6.6,9.8,6.6,17.68v30.23h-14.38v-6.6c-2.89,4.92-8.27,7.38-16.15,7.38-4.07,0-7.6-.69-10.59-2.06-2.99-1.38-5.27-3.29-6.85-5.72-1.57-2.43-2.36-5.19-2.36-8.27,0-4.92,1.86-8.8,5.57-11.62,3.71-2.82,9.44-4.23,17.18-4.23h12.21c0-3.35-1.02-5.93-3.05-7.73-2.04-1.8-5.09-2.71-9.16-2.71-2.82,0-5.6,.45-8.32,1.33-2.73,.89-5.04,2.09-6.94,3.6l-5.51-10.73c2.89-2.03,6.35-3.61,10.39-4.73,4.04-1.12,8.19-1.67,12.46-1.67,8.2,0,14.51,1.95,18.9,5.86Zm-13.1,36.54c2.04-1.22,3.48-3.01,4.33-5.37v-5.41h-10.54c-6.3,0-9.45,2.07-9.45,6.21,0,1.97,.77,3.53,2.31,4.67,1.54,1.15,3.66,1.72,6.35,1.72s4.96-.61,6.99-1.82Z"></path><path class="cls-1" d="M638.75,147.08l-23.93,56.23c-2.43,6.1-5.43,10.4-9.01,12.9-3.58,2.49-7.89,3.74-12.95,3.74-2.76,0-5.48-.43-8.17-1.28-2.69-.86-4.89-2.04-6.6-3.55l5.61-10.93c1.18,1.05,2.54,1.87,4.09,2.46,1.54,.59,3.07,.89,4.58,.89,2.1,0,3.8-.51,5.12-1.53,1.31-1.02,2.49-2.71,3.54-5.07l.2-.49-22.95-53.38h15.86l14.87,35.95,14.97-35.95h14.77Z"></path><path class="cls-1" d="M697.44,147.08v52.98h-14.58v-6.3c-2.04,2.3-4.46,4.06-7.29,5.27-2.82,1.22-5.87,1.82-9.16,1.82-6.96,0-12.47-2-16.55-6-4.07-4.01-6.1-9.95-6.1-17.83v-29.94h15.36v27.68c0,8.53,3.58,12.8,10.73,12.8,3.68,0,6.63-1.2,8.86-3.59,2.23-2.4,3.35-5.96,3.35-10.69v-26.19h15.36Z"></path><path class="cls-1" d="M393.94,237.81v68.93h-13.1l-34.37-41.85v41.85h-15.76v-68.93h13.2l34.27,41.85v-41.85h15.76Z"></path><path class="cls-1" d="M461.6,253.77v52.98h-14.58v-6.3c-2.04,2.3-4.46,4.06-7.29,5.27-2.82,1.22-5.87,1.82-9.16,1.82-6.96,0-12.47-2-16.55-6-4.07-4.01-6.1-9.95-6.1-17.83v-29.94h15.36v27.68c0,8.53,3.58,12.8,10.73,12.8,3.68,0,6.63-1.2,8.86-3.59,2.23-2.4,3.35-5.96,3.35-10.69v-26.19h15.36Z"></path><path class="cls-1" d="M479.81,305.91c-4.2-1.09-7.55-2.44-10.04-4.09l5.12-11.03c2.36,1.51,5.22,2.74,8.57,3.69,3.35,.95,6.63,1.43,9.85,1.43,6.5,0,9.75-1.61,9.75-4.83,0-1.51-.89-2.59-2.66-3.25-1.77-.65-4.5-1.21-8.17-1.67-4.33-.65-7.91-1.41-10.73-2.27-2.82-.85-5.27-2.36-7.34-4.53-2.07-2.16-3.1-5.25-3.1-9.26,0-3.35,.97-6.32,2.91-8.91,1.93-2.6,4.76-4.62,8.47-6.06,3.71-1.45,8.09-2.16,13.15-2.16,3.74,0,7.47,.41,11.17,1.23,3.71,.82,6.78,1.95,9.21,3.4l-5.12,10.93c-4.66-2.62-9.75-3.93-15.26-3.93-3.28,0-5.75,.45-7.39,1.38-1.64,.92-2.46,2.1-2.46,3.54,0,1.64,.89,2.79,2.66,3.44,1.77,.66,4.6,1.28,8.47,1.87,4.33,.73,7.88,1.5,10.64,2.32,2.76,.82,5.15,2.31,7.19,4.48,2.04,2.16,3.05,5.18,3.05,9.05,0,3.29-.98,6.21-2.95,8.77-1.97,2.56-4.84,4.55-8.62,5.96-3.78,1.41-8.25,2.11-13.44,2.11-4.4,0-8.7-.54-12.9-1.62Z"></path><path class="cls-1" d="M566.47,258.84c4.4,3.91,6.6,9.8,6.6,17.68v30.23h-14.38v-6.6c-2.89,4.92-8.27,7.38-16.15,7.38-4.07,0-7.6-.69-10.59-2.06-2.99-1.38-5.27-3.29-6.85-5.72-1.57-2.43-2.36-5.19-2.36-8.27,0-4.92,1.86-8.8,5.57-11.62,3.71-2.82,9.44-4.23,17.18-4.23h12.21c0-3.35-1.02-5.93-3.05-7.73-2.04-1.8-5.09-2.71-9.16-2.71-2.82,0-5.6,.45-8.32,1.33-2.73,.89-5.04,2.09-6.94,3.6l-5.51-10.73c2.89-2.03,6.35-3.61,10.39-4.73,4.04-1.12,8.19-1.67,12.46-1.67,8.2,0,14.51,1.95,18.9,5.86Zm-13.1,36.54c2.04-1.22,3.48-3.01,4.33-5.37v-5.41h-10.54c-6.3,0-9.45,2.07-9.45,6.21,0,1.97,.77,3.53,2.31,4.67,1.54,1.15,3.66,1.72,6.35,1.72s4.96-.61,6.99-1.82Z"></path><path class="cls-1" d="M634.07,258.89c4.04,3.94,6.06,9.79,6.06,17.53v30.33h-15.36v-27.97c0-4.2-.92-7.34-2.76-9.4-1.84-2.07-4.5-3.1-7.98-3.1-3.87,0-6.96,1.2-9.26,3.6-2.3,2.39-3.45,5.96-3.45,10.68v26.19h-15.36v-52.98h14.67v6.21c2.04-2.23,4.56-3.95,7.58-5.17,3.02-1.21,6.34-1.82,9.95-1.82,6.57,0,11.87,1.97,15.9,5.91Z"></path><path class="cls-1" d="M687.2,304.19c-1.51,1.12-3.36,1.95-5.56,2.51-2.2,.56-4.52,.84-6.94,.84-6.3,0-11.18-1.61-14.62-4.82-3.45-3.22-5.17-7.95-5.17-14.18v-21.76h-8.17v-11.82h8.17v-12.9h15.36v12.9h13.2v11.82h-13.2v21.56c0,2.23,.58,3.95,1.72,5.17,1.15,1.21,2.77,1.82,4.88,1.82,2.42,0,4.49-.65,6.2-1.97l4.13,10.83Z"></path><path class="cls-1" d="M735.16,258.84c4.4,3.91,6.6,9.8,6.6,17.68v30.23h-14.38v-6.6c-2.89,4.92-8.27,7.38-16.15,7.38-4.07,0-7.6-.69-10.59-2.06-2.99-1.38-5.27-3.29-6.85-5.72-1.57-2.43-2.36-5.19-2.36-8.27,0-4.92,1.86-8.8,5.57-11.62,3.71-2.82,9.44-4.23,17.18-4.23h12.21c0-3.35-1.02-5.93-3.05-7.73-2.04-1.8-5.09-2.71-9.16-2.71-2.82,0-5.6,.45-8.32,1.33-2.73,.89-5.04,2.09-6.94,3.6l-5.51-10.73c2.89-2.03,6.35-3.61,10.39-4.73,4.04-1.12,8.19-1.67,12.46-1.67,8.2,0,14.51,1.95,18.9,5.86Zm-13.1,36.54c2.04-1.22,3.48-3.01,4.33-5.37v-5.41h-10.54c-6.3,0-9.45,2.07-9.45,6.21,0,1.97,.77,3.53,2.31,4.67,1.54,1.15,3.66,1.72,6.35,1.72s4.96-.61,6.99-1.82Z"></path><path class="cls-1" d="M776.76,254.95c3.12-1.31,6.71-1.97,10.78-1.97v14.18c-1.71-.13-2.85-.2-3.44-.2-4.4,0-7.85,1.23-10.34,3.69-2.49,2.47-3.74,6.16-3.74,11.08v25.01h-15.36v-52.98h14.67v6.99c1.84-2.56,4.32-4.5,7.44-5.81Z"></path><path class="cls-1" d="M835.7,258.84c4.4,3.91,6.6,9.8,6.6,17.68v30.23h-14.38v-6.6c-2.89,4.92-8.27,7.38-16.15,7.38-4.07,0-7.6-.69-10.59-2.06-2.99-1.38-5.27-3.29-6.85-5.72-1.57-2.43-2.36-5.19-2.36-8.27,0-4.92,1.86-8.8,5.57-11.62,3.71-2.82,9.44-4.23,17.18-4.23h12.21c0-3.35-1.02-5.93-3.05-7.73-2.04-1.8-5.09-2.71-9.16-2.71-2.82,0-5.6,.45-8.32,1.33-2.73,.89-5.04,2.09-6.94,3.6l-5.51-10.73c2.89-2.03,6.35-3.61,10.39-4.73,4.04-1.12,8.19-1.67,12.46-1.67,8.2,0,14.51,1.95,18.9,5.86Zm-13.1,36.54c2.04-1.22,3.48-3.01,4.33-5.37v-5.41h-10.54c-6.3,0-9.45,2.07-9.45,6.21,0,1.97,.77,3.53,2.31,4.67,1.54,1.15,3.66,1.72,6.35,1.72s4.96-.61,6.99-1.82Z"></path></g></g></g></g></g></svg>