<svg xmlns="http://www.w3.org/2000/svg" xmlns:xlink="http://www.w3.org/1999/xlink" id="Layer_1" x="0px" y="0px" viewBox="0 0 842.7 332" style="enable-background:new 0 0 842.7 332;" xml:space="preserve"><style type="text/css">	.st0{fill:#FFFFFF;}</style><g>	<g id="Layer_2_00000163065173251054761610000012356880375839018158_">		<g id="Layer_1-2">			<g>				<g>					<polygon class="st0" points="172.1,86.1 172.1,288.9 189.9,271.1 200.8,260.2 200.8,97.9 210.2,88.5 229.5,69.3 229.5,229.5       230.5,230.6 250.8,210.3 258.2,202.9 258.2,0      "></polygon>					<polygon class="st0" points="149.4,27.7 129.1,48 114.8,62.3 114.8,317.6 129.1,332 143.4,317.6 143.4,74.2 172.1,45.5       172.1,4.9 169.7,7.4      "></polygon>					<polygon class="st0" points="48,48 28.7,28.7 0,0 0,202.9 7.4,210.3 28.7,231.6 28.7,69.3 57.4,97.9 57.4,260.2 68.2,271.1       86.1,288.9 86.1,86.1 57.4,57.4      "></polygon>				</g>				<g>					<path class="st0" d="M393.9,24.5v68.9h-13.1l-34.4-41.8v41.8h-15.8V24.5h13.2l34.3,41.9V24.5H393.9z"></path>					<path class="st0" d="M448.5,45.5c4.4,3.9,6.6,9.8,6.6,17.7v30.2h-14.4v-6.6c-2.9,4.9-8.3,7.4-16.1,7.4c-4.1,0-7.6-0.7-10.6-2.1      c-3-1.4-5.3-3.3-6.9-5.7c-1.6-2.4-2.4-5.2-2.4-8.3c0-4.9,1.9-8.8,5.6-11.6c3.7-2.8,9.4-4.2,17.2-4.2h12.2c0-3.3-1-5.9-3-7.7      c-2-1.8-5.1-2.7-9.2-2.7c-2.8,0-5.6,0.5-8.3,1.3c-2.7,0.9-5,2.1-6.9,3.6L406.8,46c2.9-2,6.4-3.6,10.4-4.7s8.2-1.7,12.5-1.7      C437.8,39.6,444.1,41.6,448.5,45.5L448.5,45.5z M435.4,82c2-1.2,3.5-3,4.3-5.4v-5.4h-10.5c-6.3,0-9.5,2.1-9.5,6.2      c0,2,0.8,3.5,2.3,4.7c1.5,1.2,3.7,1.7,6.4,1.7S433.4,83.2,435.4,82L435.4,82z"></path>					<path class="st0" d="M552.1,40.4l-19.2,53h-14.8l-11.9-32.9l-12.3,32.9h-14.8l-19.1-53h14.5L487,76.3l13-35.8h13l12.6,35.8      l12.9-35.8H552.1L552.1,40.4z"></path>					<path class="st0" d="M596.8,45.5c4.4,3.9,6.6,9.8,6.6,17.7v30.2H589v-6.6c-2.9,4.9-8.3,7.4-16.2,7.4c-4.1,0-7.6-0.7-10.6-2.1      c-3-1.4-5.3-3.3-6.8-5.7c-1.6-2.4-2.4-5.2-2.4-8.3c0-4.9,1.9-8.8,5.6-11.6s9.4-4.2,17.2-4.2H588c0-3.3-1-5.9-3-7.7      c-2-1.8-5.1-2.7-9.2-2.7c-2.8,0-5.6,0.5-8.3,1.3c-2.7,0.9-5,2.1-6.9,3.6L555,46c2.9-2,6.3-3.6,10.4-4.7c4-1.1,8.2-1.7,12.5-1.7      C586.1,39.6,592.4,41.6,596.8,45.5L596.8,45.5z M583.7,82c2-1.2,3.5-3,4.3-5.4v-5.4h-10.5c-6.3,0-9.5,2.1-9.5,6.2      c0,2,0.8,3.5,2.3,4.7c1.5,1.2,3.7,1.7,6.3,1.7S581.7,83.2,583.7,82L583.7,82z"></path>					<path class="st0" d="M621.2,92.5c-4.2-1.1-7.5-2.4-10-4.1l5.1-11c2.4,1.5,5.2,2.7,8.6,3.7c3.3,0.9,6.6,1.4,9.8,1.4      c6.5,0,9.8-1.6,9.8-4.8c0-1.5-0.9-2.6-2.7-3.3c-1.8-0.7-4.5-1.2-8.2-1.7c-4.3-0.7-7.9-1.4-10.7-2.3c-2.8-0.8-5.3-2.4-7.3-4.5      c-2.1-2.2-3.1-5.3-3.1-9.3c0-3.3,1-6.3,2.9-8.9c1.9-2.6,4.8-4.6,8.5-6.1c3.7-1.5,8.1-2.2,13.2-2.2c3.7,0,7.5,0.4,11.2,1.2      c3.7,0.8,6.8,2,9.2,3.4l-5.1,10.9c-4.7-2.6-9.8-3.9-15.3-3.9c-3.3,0-5.8,0.5-7.4,1.4c-1.6,0.9-2.5,2.1-2.5,3.5      c0,1.6,0.9,2.8,2.7,3.4c1.8,0.7,4.6,1.3,8.5,1.9c4.3,0.7,7.9,1.5,10.6,2.3c2.8,0.8,5.2,2.3,7.2,4.5c2,2.2,3,5.2,3,9.1      c0,3.3-1,6.2-3,8.8c-2,2.6-4.8,4.6-8.6,6c-3.8,1.4-8.3,2.1-13.4,2.1C629.7,94.2,625.4,93.6,621.2,92.5L621.2,92.5z"></path>					<path class="st0" d="M719.2,71.2h-40.1c0.7,3.3,2.4,5.9,5.1,7.8c2.7,1.9,6,2.9,10,2.9c2.8,0,5.2-0.4,7.3-1.2      c2.1-0.8,4.1-2.1,6-3.9l8.2,8.9c-5,5.7-12.3,8.6-21.9,8.6c-6,0-11.3-1.2-15.9-3.5c-4.6-2.3-8.1-5.6-10.6-9.7      c-2.5-4.1-3.7-8.8-3.7-14.1s1.2-9.9,3.7-14s5.8-7.4,10.1-9.8s9.1-3.5,14.4-3.5s9.9,1.1,14.1,3.3c4.2,2.2,7.5,5.4,9.9,9.6      c2.4,4.2,3.6,9,3.6,14.5C719.5,67.3,719.4,68.7,719.2,71.2L719.2,71.2z M683.3,54.2c-2.4,2-3.8,4.7-4.3,8.1H705      c-0.5-3.3-2-6-4.3-8c-2.4-2-5.3-3-8.7-3S685.6,52.2,683.3,54.2z"></path>					<path class="st0" d="M776.9,45.5c4,3.9,6.1,9.8,6.1,17.5v30.3h-15.4v-28c0-4.2-0.9-7.3-2.8-9.4c-1.8-2.1-4.5-3.1-8-3.1      c-3.9,0-7,1.2-9.3,3.6c-2.3,2.4-3.5,6-3.5,10.7v26.2h-15.4v-53h14.7v6.2c2-2.2,4.6-4,7.6-5.2c3-1.2,6.3-1.8,10-1.8      C767.5,39.6,772.8,41.6,776.9,45.5L776.9,45.5z"></path>					<path class="st0" d="M836.1,45.5c4.4,3.9,6.6,9.8,6.6,17.7v30.2h-14.4v-6.6c-2.9,4.9-8.3,7.4-16.2,7.4c-4.1,0-7.6-0.7-10.6-2.1      c-3-1.4-5.3-3.3-6.8-5.7c-1.6-2.4-2.4-5.2-2.4-8.3c0-4.9,1.9-8.8,5.6-11.6s9.4-4.2,17.2-4.2h12.2c0-3.3-1-5.9-3-7.7      c-2-1.8-5.1-2.7-9.2-2.7c-2.8,0-5.6,0.5-8.3,1.3c-2.7,0.9-5,2.1-6.9,3.6L794.3,46c2.9-2,6.3-3.6,10.4-4.7      c4-1.1,8.2-1.7,12.5-1.7C825.4,39.6,831.7,41.6,836.1,45.5L836.1,45.5z M823,82c2-1.2,3.5-3,4.3-5.4v-5.4h-10.5      c-6.3,0-9.5,2.1-9.5,6.2c0,2,0.8,3.5,2.3,4.7c1.5,1.2,3.7,1.7,6.3,1.7S821,83.2,823,82L823,82z"></path>					<path class="st0" d="M374.6,200.1l-13.3-19.2h-14.7v19.2h-16v-68.9h29.8c6.1,0,11.4,1,15.9,3.1c4.5,2,8,4.9,10.4,8.7      c2.4,3.7,3.6,8.2,3.6,13.3s-1.2,9.5-3.7,13.2c-2.5,3.7-6,6.6-10.5,8.5l15.5,22.2L374.6,200.1L374.6,200.1z M370.6,147.2      c-2.5-2.1-6.1-3.1-10.9-3.1h-13v24h13c4.8,0,8.4-1.1,10.9-3.1c2.5-2.1,3.7-5.1,3.7-8.9S373.1,149.3,370.6,147.2z"></path>					<path class="st0" d="M440.8,152.1c4.4,3.9,6.6,9.8,6.6,17.7v30.2H433v-6.6c-2.9,4.9-8.3,7.4-16.1,7.4c-4.1,0-7.6-0.7-10.6-2.1      c-3-1.4-5.3-3.3-6.9-5.7c-1.6-2.4-2.4-5.2-2.4-8.3c0-4.9,1.9-8.8,5.6-11.6c3.7-2.8,9.4-4.2,17.2-4.2H432c0-3.4-1-5.9-3-7.7      c-2-1.8-5.1-2.7-9.2-2.7c-2.8,0-5.6,0.4-8.3,1.3c-2.7,0.9-5,2.1-6.9,3.6l-5.5-10.7c2.9-2,6.4-3.6,10.4-4.7s8.2-1.7,12.5-1.7      C430.1,146.3,436.4,148.3,440.8,152.1L440.8,152.1z M427.7,188.7c2-1.2,3.5-3,4.3-5.4v-5.4h-10.5c-6.3,0-9.5,2.1-9.5,6.2      c0,2,0.8,3.5,2.3,4.7c1.5,1.1,3.7,1.7,6.4,1.7S425.7,189.9,427.7,188.7L427.7,188.7z"></path>					<path class="st0" d="M508.4,152.2c4,3.9,6.1,9.8,6.1,17.5v30.3h-15.4v-28c0-4.2-0.9-7.3-2.8-9.4c-1.8-2.1-4.5-3.1-8-3.1      c-3.9,0-7,1.2-9.3,3.6c-2.3,2.4-3.5,6-3.5,10.7v26.2h-15.4V127h15.4v25.6c2-2,4.5-3.6,7.4-4.7c2.9-1.1,6-1.6,9.5-1.6      C499.1,146.3,504.4,148.3,508.4,152.2L508.4,152.2z"></path>					<path class="st0" d="M567.7,152.1c4.4,3.9,6.6,9.8,6.6,17.7v30.2h-14.4v-6.6c-2.9,4.9-8.3,7.4-16.2,7.4      c-4.1,0-7.6-0.7-10.6-2.1c-3-1.4-5.3-3.3-6.8-5.7c-1.6-2.4-2.4-5.2-2.4-8.3c0-4.9,1.9-8.8,5.6-11.6c3.7-2.8,9.4-4.2,17.2-4.2      h12.2c0-3.4-1-5.9-3-7.7c-2-1.8-5.1-2.7-9.2-2.7c-2.8,0-5.6,0.4-8.3,1.3c-2.7,0.9-5,2.1-6.9,3.6l-5.5-10.7      c2.9-2,6.3-3.6,10.4-4.7c4-1.1,8.2-1.7,12.5-1.7C557,146.3,563.3,148.3,567.7,152.1L567.7,152.1z M554.6,188.7      c2-1.2,3.5-3,4.3-5.4v-5.4h-10.5c-6.3,0-9.5,2.1-9.5,6.2c0,2,0.8,3.5,2.3,4.7c1.5,1.1,3.7,1.7,6.3,1.7S552.5,189.9,554.6,188.7      L554.6,188.7z"></path>					<path class="st0" d="M638.8,147.1l-23.9,56.2c-2.4,6.1-5.4,10.4-9,12.9c-3.6,2.5-7.9,3.7-13,3.7c-2.8,0-5.5-0.4-8.2-1.3      c-2.7-0.9-4.9-2-6.6-3.6l5.6-10.9c1.2,1.1,2.5,1.9,4.1,2.5c1.5,0.6,3.1,0.9,4.6,0.9c2.1,0,3.8-0.5,5.1-1.5      c1.3-1,2.5-2.7,3.5-5.1l0.2-0.5l-23-53.4h15.9L609,183l15-35.9L638.8,147.1L638.8,147.1z"></path>					<path class="st0" d="M697.4,147.1v53h-14.6v-6.3c-2,2.3-4.5,4.1-7.3,5.3c-2.8,1.2-5.9,1.8-9.2,1.8c-7,0-12.5-2-16.5-6      c-4.1-4-6.1-9.9-6.1-17.8v-29.9h15.4v27.7c0,8.5,3.6,12.8,10.7,12.8c3.7,0,6.6-1.2,8.9-3.6c2.2-2.4,3.3-6,3.3-10.7v-26.2      L697.4,147.1L697.4,147.1z"></path>					<path class="st0" d="M393.9,237.8v68.9h-13.1l-34.4-41.9v41.9h-15.8v-68.9h13.2l34.3,41.9v-41.9H393.9z"></path>					<path class="st0" d="M461.6,253.8v53H447v-6.3c-2,2.3-4.5,4.1-7.3,5.3c-2.8,1.2-5.9,1.8-9.2,1.8c-7,0-12.5-2-16.5-6      c-4.1-4-6.1-10-6.1-17.8v-29.9h15.4v27.7c0,8.5,3.6,12.8,10.7,12.8c3.7,0,6.6-1.2,8.9-3.6c2.2-2.4,3.4-6,3.4-10.7v-26.2      L461.6,253.8L461.6,253.8z"></path>					<path class="st0" d="M479.8,305.9c-4.2-1.1-7.5-2.4-10-4.1l5.1-11c2.4,1.5,5.2,2.7,8.6,3.7s6.6,1.4,9.9,1.4      c6.5,0,9.8-1.6,9.8-4.8c0-1.5-0.9-2.6-2.7-3.3c-1.8-0.6-4.5-1.2-8.2-1.7c-4.3-0.6-7.9-1.4-10.7-2.3c-2.8-0.9-5.3-2.4-7.3-4.5      c-2.1-2.2-3.1-5.3-3.1-9.3c0-3.4,1-6.3,2.9-8.9c1.9-2.6,4.8-4.6,8.5-6.1c3.7-1.4,8.1-2.2,13.1-2.2c3.7,0,7.5,0.4,11.2,1.2      c3.7,0.8,6.8,1.9,9.2,3.4l-5.1,10.9c-4.7-2.6-9.8-3.9-15.3-3.9c-3.3,0-5.8,0.5-7.4,1.4c-1.6,0.9-2.5,2.1-2.5,3.5      c0,1.6,0.9,2.8,2.7,3.4c1.8,0.7,4.6,1.3,8.5,1.9c4.3,0.7,7.9,1.5,10.6,2.3s5.1,2.3,7.2,4.5c2,2.2,3,5.2,3,9c0,3.3-1,6.2-3,8.8      c-2,2.6-4.8,4.5-8.6,6s-8.3,2.1-13.4,2.1C488.3,307.5,484,307,479.8,305.9L479.8,305.9z"></path>					<path class="st0" d="M566.5,258.8c4.4,3.9,6.6,9.8,6.6,17.7v30.2h-14.4v-6.6c-2.9,4.9-8.3,7.4-16.2,7.4      c-4.1,0-7.6-0.7-10.6-2.1c-3-1.4-5.3-3.3-6.8-5.7c-1.6-2.4-2.4-5.2-2.4-8.3c0-4.9,1.9-8.8,5.6-11.6s9.4-4.2,17.2-4.2h12.2      c0-3.4-1-5.9-3-7.7c-2-1.8-5.1-2.7-9.2-2.7c-2.8,0-5.6,0.5-8.3,1.3c-2.7,0.9-5,2.1-6.9,3.6l-5.5-10.7c2.9-2,6.3-3.6,10.4-4.7      c4-1.1,8.2-1.7,12.5-1.7C555.8,253,562.1,254.9,566.5,258.8L566.5,258.8z M553.4,295.4c2-1.2,3.5-3,4.3-5.4v-5.4h-10.5      c-6.3,0-9.5,2.1-9.5,6.2c0,2,0.8,3.5,2.3,4.7c1.5,1.1,3.7,1.7,6.3,1.7S551.3,296.6,553.4,295.4L553.4,295.4z"></path>					<path class="st0" d="M634.1,258.9c4,3.9,6.1,9.8,6.1,17.5v30.3h-15.4v-28c0-4.2-0.9-7.3-2.8-9.4c-1.8-2.1-4.5-3.1-8-3.1      c-3.9,0-7,1.2-9.3,3.6c-2.3,2.4-3.5,6-3.5,10.7v26.2H586v-53h14.7v6.2c2-2.2,4.6-4,7.6-5.2c3-1.2,6.3-1.8,10-1.8      C624.7,253,630,255,634.1,258.9L634.1,258.9z"></path>					<path class="st0" d="M687.2,304.2c-1.5,1.1-3.4,2-5.6,2.5s-4.5,0.8-6.9,0.8c-6.3,0-11.2-1.6-14.6-4.8c-3.5-3.2-5.2-8-5.2-14.2      v-21.8h-8.2V255h8.2v-12.9h15.4V255h13.2v11.8h-13.2v21.6c0,2.2,0.6,4,1.7,5.2c1.2,1.2,2.8,1.8,4.9,1.8c2.4,0,4.5-0.6,6.2-2      L687.2,304.2z"></path>					<path class="st0" d="M735.2,258.8c4.4,3.9,6.6,9.8,6.6,17.7v30.2h-14.4v-6.6c-2.9,4.9-8.3,7.4-16.2,7.4      c-4.1,0-7.6-0.7-10.6-2.1c-3-1.4-5.3-3.3-6.8-5.7c-1.6-2.4-2.4-5.2-2.4-8.3c0-4.9,1.9-8.8,5.6-11.6s9.4-4.2,17.2-4.2h12.2      c0-3.4-1-5.9-3-7.7c-2-1.8-5.1-2.7-9.2-2.7c-2.8,0-5.6,0.5-8.3,1.3c-2.7,0.9-5,2.1-6.9,3.6l-5.5-10.7c2.9-2,6.3-3.6,10.4-4.7      c4-1.1,8.2-1.7,12.5-1.7C724.5,253,730.8,254.9,735.2,258.8L735.2,258.8z M722.1,295.4c2-1.2,3.5-3,4.3-5.4v-5.4h-10.5      c-6.3,0-9.5,2.1-9.5,6.2c0,2,0.8,3.5,2.3,4.7c1.5,1.1,3.7,1.7,6.3,1.7S720,296.6,722.1,295.4L722.1,295.4z"></path>					<path class="st0" d="M776.8,254.9c3.1-1.3,6.7-2,10.8-2v14.2c-1.7-0.1-2.8-0.2-3.4-0.2c-4.4,0-7.8,1.2-10.3,3.7      c-2.5,2.5-3.7,6.2-3.7,11.1v25h-15.4v-53h14.7v7C771.2,258.2,773.7,256.3,776.8,254.9L776.8,254.9z"></path>					<path class="st0" d="M835.7,258.8c4.4,3.9,6.6,9.8,6.6,17.7v30.2h-14.4v-6.6c-2.9,4.9-8.3,7.4-16.2,7.4      c-4.1,0-7.6-0.7-10.6-2.1c-3-1.4-5.3-3.3-6.8-5.7c-1.6-2.4-2.4-5.2-2.4-8.3c0-4.9,1.9-8.8,5.6-11.6s9.4-4.2,17.2-4.2h12.2      c0-3.4-1-5.9-3-7.7c-2-1.8-5.1-2.7-9.2-2.7c-2.8,0-5.6,0.5-8.3,1.3c-2.7,0.9-5,2.1-6.9,3.6l-5.5-10.7c2.9-2,6.3-3.6,10.4-4.7      c4-1.1,8.2-1.7,12.5-1.7C825,253,831.3,254.9,835.7,258.8L835.7,258.8z M822.6,295.4c2-1.2,3.5-3,4.3-5.4v-5.4h-10.5      c-6.3,0-9.5,2.1-9.5,6.2c0,2,0.8,3.5,2.3,4.7c1.5,1.1,3.7,1.7,6.3,1.7S820.6,296.6,822.6,295.4L822.6,295.4z"></path>				</g>			</g>		</g>	</g></g></svg>